<svg width="103" height="27" viewBox="0 0 103 27" fill="none" xmlns="http://www.w3.org/2000/svg">
<path d="M101.223 0.556548C99.7015 0.556548 97.0358 0.556548 96.3731 0.556548L95.605 15.1644H94.3098L93.4664 0.541504L86.8999 0.556548L88.7975 18.9405H94.6712V20.3095L88.7825 20.3396V25.4997C90.9362 25.4997 100.138 25.4696 100.274 25.4696C100.424 24.0705 102.759 3.12909 103 0.556548C102.744 0.556548 102.051 0.556548 101.223 0.556548Z" fill="black"/>
<path d="M30.3171 25.4703L27.8321 12.9386L30.3171 0.542236H23.9766L22.3952 10.697V10.7121L22.3801 10.7572H21.2205V0.542236H15.0305V25.4703H21.2205V15.0899H22.3801L22.3952 15.135V15.1651L23.9766 25.4703H30.3171Z" fill="black"/>
<path d="M31.4465 25.4696H41.7782V20.0236H37.7118H37.6365V19.9484V15.8263V15.7511H37.7118H41.7782V10.3051H37.7118H37.6365V10.2149V6.06269V5.98747H37.7118H41.7782V0.541504H31.4465V25.4696Z" fill="black"/>
<path d="M42.968 5.98747H46.1006H46.191V6.06269V25.4696H52.381V6.06269V5.98747H52.4563H55.5889V0.541504H42.968V5.98747Z" fill="black"/>
<path d="M79.5806 10.1848H77.9691V0.541504H71.749V25.4696H77.9691V15.6458H79.5806V25.4696H85.7705V0.541504H79.5806V10.1848Z" fill="black"/>
<path d="M6.8978 0C1.52113 0 0 2.01591 0 7.10082C0 7.56719 0.0150608 10.1999 1.35546 12.0052C3.47902 14.8636 7.80144 15.1043 7.80144 18.0229V20.0538C7.80144 20.4901 7.45505 20.8361 7.01829 20.8361C6.58153 20.8361 6.23513 20.4901 6.23513 20.0538V17.2105H0V18.399C0 24.1308 1.21992 25.9962 6.8978 25.9962C12.7112 25.9962 13.7805 24.6874 13.7805 18.4892C13.7805 16.4282 13.7354 14.9388 12.3197 12.9831C10.5425 10.5459 5.96404 10.1247 5.9791 7.14596V5.95747C5.9791 5.52119 6.32549 5.17518 6.76225 5.17518C7.19901 5.17518 7.54541 5.52119 7.54541 5.95747V7.97338H13.7805V7.2964C13.7956 1.98582 12.7414 0 6.8978 0Z" fill="black"/>
<path d="M63.4357 0C58.4506 0 56.4927 1.76016 56.4927 7.19109V18.7751C56.4927 23.7697 58.0439 26.0113 63.4357 26.0113C68.6467 26.0113 70.3184 24.9582 70.3184 18.7751V13.7503H64.2038V19.1963C64.2038 19.6326 63.8574 19.9786 63.4206 19.9786H63.3754C62.9387 19.9786 62.5923 19.6326 62.5923 19.1963V6.79994C62.5923 6.36366 62.9387 6.01765 63.3754 6.01765H63.4206C63.8574 6.01765 64.2038 6.36366 64.2038 6.79994V12.261H70.3335V7.19109C70.3335 1.98582 68.737 0 63.4357 0Z" fill="black"/>
</svg>
